PathFileType	4	(X/Y/Z)	E:\Marcel_BSc\Hannes_22_01_2025\22-01-2025\sumo_dl_3.trc
DataRate	CameraRate	NumFrames	NumMarkers	Units	OrigDataRate	OrigDataStartFrame	OrigNumFrames
200.0	200.0	4	48	mm	200.0	2806	2673	
Frame#	Time	FHD			LBHD			RBHD			RBAR			LBAR			RSACR			LSACR			USACR			LASI			C7			CLAV			T10			RSHO			LSHO			LTHI1			LTHI3			LTHI2			LTIB1			LTIB2			LTIB3			LMMAL			LLMAL			LHEE			LMT1			LMT5			LMT3			RTHI1			RTHI2			RTHI3			RTIB1			RTIB3			RTIB2			RLMAL			RMMAL			RHEE			RMT5			RMT1			RMT3			LDUPA			LMUPA			LUUPA			LUL			LRAD			LRFIN			RRAD			RMUPA			RDUPA			RUUPA			
		X1	Y1	Z1	X2	Y2	Z2	X3	Y3	Z3	X4	Y4	Z4	X5	Y5	Z5	X6	Y6	Z6	X7	Y7	Z7	X8	Y8	Z8	X9	Y9	Z9	X10	Y10	Z10	X11	Y11	Z11	X12	Y12	Z12	X13	Y13	Z13	X14	Y14	Z14	X15	Y15	Z15	X16	Y16	Z16	X17	Y17	Z17	X18	Y18	Z18	X19	Y19	Z19	X20	Y20	Z20	X21	Y21	Z21	X22	Y22	Z22	X23	Y23	Z23	X24	Y24	Z24	X25	Y25	Z25	X26	Y26	Z26	X27	Y27	Z27	X28	Y28	Z28	X29	Y29	Z29	X30	Y30	Z30	X31	Y31	Z31	X32	Y32	Z32	X33	Y33	Z33	X34	Y34	Z34	X35	Y35	Z35	X36	Y36	Z36	X37	Y37	Z37	X38	Y38	Z38	X39	Y39	Z39	X40	Y40	Z40	X41	Y41	Z41	X42	Y42	Z42	X43	Y43	Z43	X44	Y44	Z44	X45	Y45	Z45	X46	Y46	Z46	X47	Y47	Z47	X48	Y48	Z48	
2806	14.02	-72.141678	1012.4773	-975.42694	3.6619725	1059.4904	-871.46606	12.218725	1077.2301	-1067.7588	108.0596	233.89594	-2060.0959	131.15042	246.8806	161.19664	513.65424	597.43878	-997.45245	513.85205	597.0022	-931.97717	507.10815	614.75836	-968.117				240.59763	1026.5991	-958.86047	115.75184	894.13843	-969.94641	427.18161	761.00482	-962.80475	162.77826	943.0354	-1169.8356	157.64594	935.40765	-765.10004	378.66504	537.63544	-685.60828	340.88708	507.78384	-640.05707	327.55515	556.33807	-647.68073	196.67447	267.34976	-469.15268	238.09009	277.42572	-498.32849	228.04427	213.78191	-491.64471	174.60014	83.52861	-556.72009	239.24223	80.683281	-488.08334	266.86026	25.286579	-550.11884	77.623863	42.636883	-451.54504	149.63985	30.343943	-392.24326	102.38958	32.242538	-409.47772	387.94336	502.49069	-1235.6215	342.168	527.33246	-1276.1899	348.89017	477.05014	-1283.0315	181.35814	271.70245	-1437.0728	202.93944	211.27409	-1424.7798	228.83749	269.26462	-1418.3062	225.45555	77.460373	-1408.088	153.66994	81.305222	-1345.667	252.98035	29.161522	-1347.7991	146.41895	26.146139	-1499.8442	63.629642	37.339249	-1458.8375	94.341187	29.702654	-1496.1615	147.21304	679.97546	-701.95209	147.94002	742.25128	-708.33325	111.61711	740.21033	-742.31927	84.155441	353.14545	-691.98944	78.149284	350.50858	-743.50836	74.417236	243.69398	-756.41699	146.20168	345.5278	-1209.6427	199.95065	705.43524	-1222.9827	166.09958	670.35242	-1213.0598	155.90977	748.73877	-1213.6139
2807	14.025	-71.671013	1012.218	-975.28644	4.0452595	1059.2689	-871.24664	12.648562	1076.9728	-1067.6587	108.18609	233.91501	-2060.1248	131.21745	246.90204	161.19585	513.77411	597.09003	-997.38666	513.9256	596.69159	-931.90051	507.21378	614.4231	-968.05591				241.12061	1026.4526	-958.73883	116.42344	893.93231	-969.95917	427.43539	760.69275	-962.74603	163.06464	943.04553	-1169.7275	158.12228	935.3205	-764.97443	378.19223	536.95294	-685.9375	340.90332	507.6514	-640.01483	327.5639	556.2431	-647.68475	196.67952	267.38022	-469.15158	238.12857	277.41327	-498.29172	228.10733	213.7652	-491.58966	174.61983	83.538612	-556.68433	239.27774	80.654106	-488.06686	266.85757	25.302896	-550.09442	77.647163	42.633289	-451.55396	149.63846	30.336063	-392.24606	102.4039	32.233215	-409.49844	388.04663	502.3129	-1235.5321	342.29584	527.17554	-1276.0919	348.96188	476.90091	-1282.9442	181.47342	271.70618	-1437.0382	203.02632	211.29105	-1424.7598	228.90938	269.25305	-1418.264	225.45885	77.470528	-1408.0646	153.65263	81.297104	-1345.67	252.96562	29.174883	-1347.7826	146.41502	26.157673	-1499.8351	63.620895	37.344643	-1458.8514	94.347916	29.700729	-1496.1595	147.39374	679.8725	-702.17639	148.31761	742.12048	-708.26593	111.96962	740.13367	-742.23761	84.16301	353.08432	-692.02496	78.198738	350.45596	-743.52222	74.503723	243.67216	-756.45325	146.25383	345.51282	-1209.6256	200.07021	705.39636	-1222.92	166.1974	670.35602	-1212.9541	156.03647	748.74298	-1213.4437
2808	14.03	-71.174797	1011.8527	-975.16327	4.4840426	1059.0365	-871.12518	13.023694	1076.7224	-1067.4856	108.28912	233.94548	-2060.0737	131.31746	246.90034	161.19008	513.87842	596.72919	-997.33228	513.9975	596.38428	-931.84833	507.29507	614.12122	-968.01056				241.62416	1026.3225	-958.63995	116.78474	893.86731	-969.85254	427.70767	760.34546	-962.729	163.35846	943.02405	-1169.6458	158.69215	935.23523	-764.85693	378.202	536.80054	-685.8891	340.90683	507.53748	-639.9646	327.56274	556.13556	-647.64862	196.70216	267.35367	-469.10764	238.15047	277.43842	-498.24994	228.17061	213.78995	-491.53967	174.65112	83.550003	-556.65405	239.26675	80.64859	-488.03714	266.87567	25.295471	-550.07733	77.656738	42.645119	-451.5495	149.63504	30.323812	-392.24008	102.40712	32.230156	-409.49835	388.1781	502.13568	-1235.4473	342.43564	527.00793	-1275.9822	349.10507	476.70392	-1282.8395	181.55872	271.71191	-1436.9847	203.05518	211.29955	-1424.7108	228.95375	269.21811	-1418.1592	225.47435	77.464966	-1408.0548	153.64351	81.296997	-1345.6655	252.93532	29.198368	-1347.756	146.39906	26.147985	-1499.8284	63.643559	37.324577	-1458.8397	94.347473	29.690279	-1496.1736	147.75243	679.78204	-702.17133	148.73335	742.03326	-708.25977	112.33057	740.07428	-742.14532	84.185577	353.05893	-692.06689	78.222473	350.44385	-743.55511	74.625443	243.38573	-756.3725	146.31461	345.52896	-1209.6068	200.16565	705.40015	-1222.8683	166.3013	670.35486	-1212.927	155.97295	748.67432	-1213.3453
2809	14.035	-70.715088	1011.5391	-974.9494	5.0381508	1058.8435	-870.98016	13.370151	1076.4977	-1067.3358	108.3856	233.82106	-2060.1543	131.39052	246.90405	161.1803	513.96008	596.38965	-997.32153	514.0686	596.0722	-931.77362	507.40045	613.78351	-967.96686				242.09882	1026.2222	-958.59894	116.91135	893.90424	-969.63312	427.75034	760.04095	-962.763	163.59674	943.05066	-1169.5493	159.17746	935.21246	-764.76581	378.22873	536.62427	-685.81042	340.91199	507.44409	-639.88477	327.54254	556.0376	-647.59656	196.70454	267.36838	-469.06897	238.61855	277.44159	-497.6228	228.18092	213.81119	-491.49677	174.66779	83.551743	-556.62469	239.29971	80.627068	-488.01743	266.89221	25.303465	-550.07312	77.679893	42.660812	-451.55984	149.63274	30.298512	-392.24432	102.40274	32.221085	-409.49936	388.31604	501.91122	-1235.3516	342.56729	526.81458	-1275.8622	349.20746	476.52011	-1282.7446	181.61641	271.72473	-1436.9485	203.13223	211.30951	-1424.6764	229.01318	269.20477	-1418.1021	225.45668	77.43869	-1408.056	153.64246	81.295135	-1345.6642	252.93773	29.183611	-1347.743	146.4008	26.149315	-1499.8363	63.614025	37.344563	-1458.87	94.371727	29.690523	-1496.1685	148.0484	679.74915	-702.08447	149.09793	742.02594	-708.19556	112.68677	740.0882	-742.06622	84.20826	353.08646	-692.0863	78.271698	350.46179	-743.53558	74.705147	243.38222	-756.37482	146.37769	345.52731	-1209.5885	200.24573	705.43671	-1222.8291	166.40379	670.37476	-1212.9196	156.06097	748.7243	-1213.2614
